<svg xmlns="http://www.w3.org/2000/svg" version="1.1" xmlns:xlink="http://www.w3.org/1999/xlink" xmlns:svgjs="http://svgjs.dev/svgjs" width="1000" height="600" preserveAspectRatio="none" viewBox="0 0 1000 600"><g mask="url(&quot;#SvgjsMask1031&quot;)" fill="none"><rect width="1000" height="600" x="0" y="0" fill="rgba(249, 250, 251, 1)"></rect><path d="M525.21 606.65C615.99 526.79 562.7 163.69 711.8 160.45 860.91 157.21 974.52 390.39 1084.99 400.45" stroke="rgba(51,121,194,0.58)" stroke-width="2"></path><path d="M288.33 655.19C436.55 609.47 478.08 189.23 693 184.88 907.91 180.53 987.01 360.88 1097.66 364.88" stroke="rgba(51,121,194,0.58)" stroke-width="2"></path><path d="M606.64 662.19C693.66 576.53 634.47 213.15 780.44 205.73 926.42 198.31 1028.97 391.49 1128.05 397.73" stroke="rgba(51,121,194,0.58)" stroke-width="2"></path><path d="M239.38 695.22C357.32 690.44 431.17 506.2 667.58 496.3 903.99 486.4 977.31 297.42 1095.78 292.3" stroke="rgba(51,121,194,0.58)" stroke-width="2"></path><path d="M145.73 658.71C269.69 613.25 286.91 252.02 469.85 241.75 652.79 231.48 631.92 316.75 793.98 316.75 956.04 316.75 1034.93 242.24 1118.1 241.75" stroke="rgba(51,121,194,0.58)" stroke-width="2"></path></g><defs><mask id="SvgjsMask1031"><rect width="1000" height="600" fill="#ffffff"></rect></mask></defs></svg>