<svg xmlns="http://www.w3.org/2000/svg" version="1.1" xmlns:xlink="http://www.w3.org/1999/xlink" xmlns:svgjs="http://svgjs.dev/svgjs" width="1440" height="700" preserveAspectRatio="none" viewBox="0 0 1440 700"><g mask="url(&quot;#SvgjsMask1195&quot;)" fill="none"><rect width="1440" height="700" x="0" y="0" fill="rgba(249, 250, 251, 1)"></rect><path d="M63 700L763 0L1109.5 0L409.5 700z" fill="url(&quot;#SvgjsLinearGradient1196&quot;)"></path><path d="M520.2 700L1220.2 0L1644.7 0L944.7 700z" fill="url(&quot;#SvgjsLinearGradient1196&quot;)"></path><path d="M1360 700L660 0L-49.5 0L650.5 700z" fill="url(&quot;#SvgjsLinearGradient1197&quot;)"></path><path d="M888.8 700L188.79999999999995 0L44.799999999999955 0L744.8 700z" fill="url(&quot;#SvgjsLinearGradient1197&quot;)"></path><path d="M863.3392527170778 700L1440 123.33925271707778L1440 700z" fill="url(&quot;#SvgjsLinearGradient1196&quot;)"></path><path d="M0 700L576.6607472829222 700L 0 123.33925271707778z" fill="url(&quot;#SvgjsLinearGradient1197&quot;)"></path></g><defs><mask id="SvgjsMask1195"><rect width="1440" height="700" fill="#ffffff"></rect></mask><linearGradient x1="0%" y1="100%" x2="100%" y2="0%" id="SvgjsLinearGradient1196"><stop stop-color="rgba(59, 130, 246, 1)" offset="0"></stop><stop stop-opacity="0" stop-color="rgba(59, 130, 246, 1)" offset="0.66"></stop></linearGradient><linearGradient x1="100%" y1="100%" x2="0%" y2="0%" id="SvgjsLinearGradient1197"><stop stop-color="rgba(59, 130, 246, 1)" offset="0"></stop><stop stop-opacity="0" stop-color="rgba(59, 130, 246, 1)" offset="0.66"></stop></linearGradient></defs></svg>