<svg xmlns="http://www.w3.org/2000/svg" version="1.1" xmlns:xlink="http://www.w3.org/1999/xlink" xmlns:svgjs="http://svgjs.dev/svgjs" viewBox="0 0 1422 800"><defs><filter id="uuunion-blur" x="-100%" y="-100%" width="400%" height="400%" color-interpolation-filters="sRGB">
        <feGaussianBlur in="SourceGraphic" stdDeviation="0 7.5" result="blur"></feGaussianBlur>
        <feDropShadow stdDeviation="43.07692307692307" in="blur" dx="35" dy="35" flood-color="#f9fafb" flood-opacity="0.09" x="0%" y="0%" width="100%" height="100%"></feDropShadow>
      </filter><filter id="uuunion-blur2" x="-100%" y="-100%" width="400%" height="400%" color-interpolation-filters="sRGB">
        <feGaussianBlur in="SourceGraphic" stdDeviation="0 7.5" result="blur"></feGaussianBlur>
        <feDropShadow stdDeviation="43.07692307692307" in="blur" dx="-35" dy="-35" flood-color="#f9fafb" flood-opacity="0.09" x="0%" y="0%" width="100%" height="100%"></feDropShadow>
      </filter><linearGradient gradientTransform="rotate(37, 0.5, 0.5)" x1="50%" y1="0%" x2="50%" y2="100%" id="uuunion-grad"><stop stop-color="#3b82f6" offset="10%"></stop><stop stop-color="#f9fafb" offset="90%"></stop></linearGradient><linearGradient gradientTransform="rotate(83, 0.5, 0.5)" x1="50%" y1="0%" x2="50%" y2="100%" id="uuunion-grad2"><stop stop-color="#3b82f6" offset="25%"></stop><stop stop-color="#f9fafb" offset="100%"></stop></linearGradient><linearGradient gradientTransform="rotate(338, 0.5, 0.5)" x1="50%" y1="0%" x2="50%" y2="100%" id="uuunion-grad3"><stop stop-color="#3b82f6" offset="0%"></stop><stop stop-color="#f9fafb" offset="75%"></stop></linearGradient></defs><path d="M-142.56 -87.46Q-129.24 -89.78 -115.92 -90.77 -102.61 -90.3 -89.29 -88.44 -75.97 -85.43 -62.66 -81.68 -49.34 -77.71 -36.02 -74.04 -22.71 -71.19 -9.39 -69.52 3.92 -69.28 17.23 -70.49 30.55 -72.98 43.87 -76.43 57.18 -80.36 70.5 -84.24 83.82 -87.55 97.13 -89.83 110.45 -90.78 123.77 -90.26 137.08 -88.36 150.4 -85.32 163.72 -81.56 177.03 -77.58 190.35 -73.94 203.67 -71.11 216.98 -69.49 230.3 -69.29 243.62 -70.55 256.94 -73.08 270.25 -76.56 283.57 -80.49 296.89 -84.36 310.2 -87.64 323.52 -89.88 336.84 -90.78 350.15 -90.22 363.47 -88.27 376.79 -85.2 390.1 -81.43 403.42 -77.46 416.74 -73.83 430.05 -71.04 443.37 -69.46 456.69 -69.31 470 -70.61 483.32 -73.18 496.64 -76.68 509.95 -80.62 523.27 -84.48 536.59 -87.73 549.9 -89.94 563.22 -90.79 576.54 -90.18 589.86 -88.19 603.17 -85.09 616.49 -81.3 629.81 -77.33 643.12 -73.72 656.44 -70.97 669.76 -69.43 683.07 -69.33 696.39 -70.68 709.71 -73.29 723.02 -76.8 736.34 -80.75 749.66 -84.6 762.97 -87.82 776.29 -89.99 789.61 -90.79 802.92 -90.14 816.24 -88.1 829.56 -84.97 842.88 -81.17 856.19 -77.2 869.51 -73.62 882.83 -70.89 896.14 -69.41 909.46 -69.35 922.78 -70.74 936.09 -73.39 949.41 -76.93 962.73 -80.88 976.04 -84.72 989.36 -87.91 1002.68 -90.03 1015.99 -90.79 1029.31 -90.09 1042.63 -88.02 1055.94 -84.86 1069.26 -81.04 1082.58 -77.08 1095.9 -73.51 1109.21 -70.82 1122.53 -69.38 1135.85 -69.38 1149.16 -70.81 1162.48 -73.49 1175.8 -77.05 1189.11 -81.01 1202.43 -84.84 1215.75 -88 1229.06 -90.08 1242.38 -90.79 1255.7 -90.04 1269.01 -87.93 1282.33 -84.74 1295.65 -80.91 1308.97 -76.95 1322.28 -73.41 1335.6 -70.76 1348.92 -69.36 1362.23 -69.4 1375.55 -70.88 1388.87 -73.6 1402.18 -77.18 1415.5 -81.14 1428.82 -84.95 1442.13 -88.09 1455.45 -90.13 1468.77 -90.79 1482.08 -89.99 1495.4 -87.84 1508.72 -84.62 1522.04 -80.78 1535.35 -76.83 1548.67 -73.3 1561.99 -70.69 1561.65 -55.82 1561.71 -40.95 1562.15 -26.08 1562.91 -11.21 1563.86 3.65 1564.86 18.53 1565.76 33.4 1566.42 48.27 1566.74 63.14 1566.67 78.01 1566.21 92.88 1565.45 107.75 1564.49 122.62 1563.49 137.49 1562.59 152.36 1561.94 167.23 1561.64 182.1 1561.73 196.97 1562.2 211.85 1562.98 226.72 1563.94 241.59 1564.94 256.46 1565.83 271.33 1566.46 286.2 1566.75 301.07 1566.64 315.94 1566.16 330.81 1565.37 345.68 1564.41 360.55 1563.41 375.42 1562.53 390.29 1561.91 405.16 1561.64 420.04 1561.76 434.91 1562.26 449.78 1563.05 464.65 1564.02 479.52 1565.02 494.39 1565.89 509.26 1566.5 524.13 1566.76 539 1566.62 553.87 1566.11 568.74 1565.3 583.61 1564.32 598.48 1563.33 613.36 1562.47 628.23 1561.87 643.1 1561.63 657.97 1561.79 672.84 1562.31 687.71 1563.13 702.58 1564.11 717.45 1565.1 732.32 1565.96 747.19 1566.54 762.06 1566.76 776.93 1566.59 791.8 1566.05 806.68 1565.22 821.55 1564.24 836.42 1563.25 851.29 1562.4 866.16 1561.84 881.03 1548.52 880.74 1535.2 880.35 1521.89 879.91 1508.57 879.48 1495.26 879.12 1481.94 878.88 1468.62 878.8 1455.31 878.87 1441.99 879.1 1428.68 879.44 1415.36 879.87 1402.04 880.31 1388.73 880.71 1375.41 881.01 1362.1 881.17 1348.78 881.18 1335.46 881.02 1322.15 880.73 1308.83 880.33 1295.52 879.89 1282.2 879.47 1268.89 879.11 1255.57 878.88 1242.25 878.8 1228.94 878.87 1215.62 879.11 1202.31 879.46 1188.99 879.88 1175.67 880.32 1162.36 880.72 1149.04 881.02 1135.73 881.17 1122.41 881.17 1109.09 881.01 1095.78 880.72 1082.46 880.32 1069.15 879.88 1055.83 879.45 1042.51 879.1 1029.2 878.87 1015.88 878.8 1002.57 878.88 989.25 879.12 975.94 879.47 962.62 879.9 949.3 880.34 935.99 880.73 922.67 881.02 909.36 881.18 896.04 881.17 882.72 881.01 869.41 880.7 856.09 880.31 842.78 879.86 829.46 879.44 816.15 879.09 802.83 878.87 789.51 878.8 776.2 878.88 762.88 879.13 749.57 879.48 736.25 879.91 722.93 880.35 709.62 880.74 696.3 881.03 682.99 881.18 669.67 881.17 656.35 881 643.04 880.69 629.72 880.29 616.41 879.85 603.09 879.43 589.78 879.08 576.46 878.86 563.14 878.8 549.83 878.89 536.51 879.14 523.2 879.5 509.88 879.93 496.56 880.36 483.25 880.75 469.93 881.04 456.62 881.18 443.3 881.17 429.99 880.99 416.67 880.68 403.35 880.28 390.04 879.84 376.72 879.42 363.41 879.08 350.09 878.86 336.77 878.8 323.46 878.9 310.14 879.15 296.83 879.51 283.51 879.94 270.2 880.38 256.88 880.76 243.56 881.04 230.25 881.18 216.93 881.16 203.62 880.98 190.3 880.67 176.99 880.26 163.67 879.82 150.35 879.4 137.04 879.07 123.72 878.85 110.41 878.8 97.09 878.9 83.77 879.16 70.46 879.52 57.14 879.95 43.83 880.39 30.51 880.77 17.2 881.05 3.88 881.19 -9.43 881.16 -22.74 880.97 -36.06 880.66 -49.37 880.25 -62.69 879.81 -76 879.39 -89.32 879.06 -102.64 878.85 -115.95 878.8 -129.27 878.91 -142.58 879.17 -142.49 864.06 -142.34 848.96 -142.18 833.86 -142.01 818.75 -141.87 803.65 -141.78 788.54 -141.75 773.44 -141.79 758.34 -141.89 743.23 -142.03 728.13 -142.2 713.03 -142.37 697.92 -142.5 682.82 -142.59 667.72 -142.62 652.61 -142.58 637.51 -142.48 622.4 -142.33 607.3 -142.16 592.2 -142 577.09 -141.86 561.99 -141.78 546.89 -141.75 531.78 -141.8 516.68 -141.9 501.58 -142.05 486.47 -142.21 471.37 -142.38 456.26 -142.51 441.16 -142.6 426.06 -142.62 410.95 -142.57 395.85 -142.47 380.75 -142.32 365.64 -142.15 350.54 -141.99 335.44 -141.85 320.33 -141.77 305.23 -141.75 290.12 -141.8 275.02 -141.91 259.92 -142.06 244.81 -142.23 229.71 -142.39 214.61 -142.52 199.5 -142.6 184.4 -142.62 169.3 -142.57 154.19 -142.46 139.09 -142.3 123.98 -142.14 108.88 -141.97 93.78 -141.84 78.67 -141.77 63.57 -141.75 48.47 -141.81 33.36 -141.92 18.26 -142.07 3.16 -142.24 -11.94 -142.4 -27.04 -142.53 -42.15 -142.6 -57.25 -142.61 -72.35 -142.56 -87.46" fill="url(#uuunion-grad)"></path><path d="M-142.57 -87.45Q-142.62 -72.35 -142.61 -57.25 -142.54 -42.14 -142.41 -27.04 -142.25 -11.94 -142.08 3.16 -141.93 18.26 -141.82 33.36 -141.76 48.47 -141.78 63.57 -141.85 78.68 -141.98 93.78 -142.15 108.88 -142.31 123.99 -142.47 139.09 -142.58 154.19 -142.63 169.3 -142.61 184.4 -142.53 199.5 -142.4 214.61 -142.24 229.71 -142.07 244.82 -141.92 259.92 -141.81 275.02 -141.76 290.13 -141.78 305.23 -141.86 320.33 -142 335.44 -142.16 350.54 -142.33 365.64 -138.09 387.83 -124.83 394.29 -115.95 394.01 -107.07 394.09 -98.19 394.53 -89.32 395.3 -80.44 396.36 -71.56 397.64 -62.68 399.05 -53.81 400.53 -44.93 401.98 -36.05 403.3 -27.17 404.42 -18.3 405.28 -1.52 405.94 1.44 405.99 12.54 402.51 23.66 398.49 34.77 394.02 45.89 389.2 57.02 384.21 68.15 379.22 79.28 374.4 90.42 369.91 101.57 365.89 112.72 362.43 123.87 359.57 135.02 357.28 146.18 355.49 157.34 354.08 168.5 352.9 179.66 351.75 190.83 350.46 201.99 348.84 213.16 346.76 224.32 344.11 235.48 340.83 246.65 336.94 257.8 332.5 268.96 327.64 280.11 322.51 291.26 317.3 302.41 312.21 313.54 307.42 324.68 303.1 335.81 299.36 346.93 296.27 358.04 293.82 369.15 291.97 380.25 290.59 391.34 289.53 402.43 288.58 413.5 287.56 424.57 286.25 435.64 284.48 446.69 282.12 457.73 279.1 468.77 275.39 479.8 271.04 490.83 266.18 501.84 260.95 512.85 255.55 523.86 250.2 534.86 245.11 545.85 240.46 556.85 236.41 567.83 233.04 578.82 230.39 589.8 228.42 600.78 227.01 611.76 226.03 622.74 225.25 633.73 224.48 644.71 223.47 655.7 222.04 666.69 220.01 677.69 217.28 688.69 213.8 699.69 209.61 710.71 204.79 721.73 199.51 732.76 193.96 743.8 188.37 754.84 182.98 765.9 177.99 776.97 173.6 788.05 169.91 799.14 167 810.24 164.85 821.35 163.37 832.47 162.41 843.6 161.77 854.75 161.22 865.9 160.51 877.07 159.42 888.25 157.74 899.43 155.34 910.63 152.15 921.83 148.16 933.05 143.45 944.27 138.17 955.5 132.51 966.73 126.72 977.97 121.03 989.21 115.71 1000.46 110.95 1011.71 106.91 1022.96 103.7 1034.2 101.31 1045.45 99.69 1056.7 98.71 1067.94 98.15 1079.18 97.79 1090.41 97.36 1101.64 96.6 1112.85 95.3 1124.06 93.27 1135.26 90.41 1146.45 86.68 1157.63 82.14 1168.8 76.91 1179.95 71.2 1191.1 65.23 1202.22 59.28 1213.34 53.62 1224.44 48.48 1235.52 44.06 1246.59 40.5 1257.64 37.82 1268.68 36.01 1279.71 34.93 1290.72 34.41 1301.72 34.2 1312.7 34.02 1323.68 33.59 1334.64 32.67 1345.59 31.04 1356.52 28.55 1367.45 25.13 1378.37 20.82 1389.29 15.71 1400.19 9.99 1411.1 3.9 1422 -2.28 1420.93 -19.82 1420.09 -37.36 1419.65 -54.9 1419.69 -72.44 1420.22 -89.98 1421.11 -107.52 1422.19 -125.06 1423.23 -142.59 1410.91 -138.72 1398.59 -135 1386.27 -131.85 1373.95 -129.65 1361.63 -128.64 1349.31 -128.95 1336.99 -130.54 1324.66 -133.23 1312.34 -136.7 1300.02 -140.55 1287.7 -144.33 1275.38 -147.62 1263.06 -150.02 1250.74 -151.26 1238.42 -151.19 1226.1 -149.83 1213.78 -147.33 1201.46 -143.98 1189.14 -140.17 1176.82 -136.33 1164.5 -132.92 1152.18 -130.33 1139.86 -128.86 1127.54 -128.68 1115.22 -129.81 1102.9 -132.12 1090.58 -135.34 1078.26 -139.1 1065.94 -142.96 1053.62 -146.48 1041.29 -149.25 1028.97 -150.95 1016.65 -151.37 1004.33 -150.48 992.01 -148.38 979.69 -145.3 967.37 -141.61 955.05 -137.73 942.73 -134.11 930.41 -131.18 918.09 -129.27 905.77 -128.6 893.45 -129.25 881.13 -131.14 868.81 -134.06 856.49 -137.67 844.17 -141.55 831.85 -145.25 819.53 -148.33 807.21 -150.46 794.89 -151.37 782.57 -150.96 770.24 -149.29 757.92 -146.53 745.6 -143.02 733.28 -139.16 720.96 -135.4 708.64 -132.16 696.32 -129.84 684 -128.69 671.68 -128.85 659.36 -130.3 647.04 -132.88 634.72 -136.28 622.4 -140.11 610.08 -143.92 597.76 -147.28 585.44 -149.8 573.12 -151.18 560.8 -151.27 548.48 -150.05 536.16 -147.66 523.84 -144.39 511.52 -140.61 499.19 -136.75 486.87 -133.28 474.55 -130.58 462.23 -128.97 449.91 -128.64 437.59 -129.62 425.27 -131.81 412.95 -134.94 400.63 -138.66 388.31 -142.54 375.99 -146.12 363.67 -148.99 351.35 -150.82 339.03 -151.39 326.71 -150.65 314.39 -148.67 302.07 -145.69 289.75 -142.04 277.43 -138.16 265.11 -134.5 252.79 -131.47 240.47 -129.42 228.15 -128.6 215.82 -129.11 203.5 -130.87 191.18 -133.69 178.86 -137.24 166.54 -141.11 154.22 -144.85 141.9 -148.03 129.58 -150.28 117.26 -151.33 104.94 -151.08 92.62 -149.54 80.3 -146.89 67.98 -143.45 55.66 -139.6 43.34 -135.81 31.02 -132.49 18.7 -130.05 6.38 -128.76 -5.93 -128.77 -18.25 -130.08 -30.57 -132.54 -42.89 -135.86 -55.22 -139.66 -67.54 -143.5 -79.86 -146.94 -92.18 -149.57 -104.5 -151.09 -116.82 -151.33 -129.14 -150.25 -141.46 -147.98 -153.78 -144.8 -150.98 -130.55 -148.2 -116.25 -145.4 -101.88 -142.57 -87.45" fill="url(#uuunion-grad2)" filter="url(#uuunion-blur)"></path><path d="M1424.01 318.44Q1432.91 316.87 1441.8 315.49 1450.7 314.38 1459.6 313.61 1468.49 313.23 1477.39 313.26 1486.29 313.7 1495.18 314.52 1504.08 315.67 1512.98 317.08 1521.88 318.67 1530.77 320.34 1539.67 321.99 1548.57 323.52 1557.46 324.83 1566.36 325.85 1565.52 343.2 1564.41 360.55 1563.25 377.9 1562.29 395.25 1561.72 412.6 1561.67 429.95 1562.15 447.3 1563.05 464.65 1564.19 482 1565.33 499.35 1566.24 516.7 1566.72 534.04 1566.67 551.39 1566.11 568.74 1565.14 586.09 1563.99 603.44 1562.87 620.79 1562.03 638.14 1561.64 655.49 1561.79 672.84 1562.43 690.19 1563.44 707.54 1564.61 724.89 1565.69 742.24 1566.46 759.58 1566.76 776.93 1566.52 794.28 1565.8 811.63 1564.74 828.98 1563.57 846.33 1562.53 863.68 1561.84 881.03 1549.62 880.77 1537.41 880.42 1525.19 880.02 1512.98 879.62 1500.76 879.26 1488.55 878.99 1476.34 878.83 1464.12 878.8 1451.91 878.91 1439.69 879.15 1427.48 879.48 1415.27 879.87 1403.05 880.28 1390.84 880.65 1378.62 880.95 1366.41 881.14 1354.2 881.19 1341.98 881.12 1329.77 880.91 1317.55 880.6 1305.34 880.22 1293.13 879.81 1280.91 879.43 1268.7 879.11 1256.48 878.89 1244.27 878.8 1232.06 878.84 1219.84 879.02 1207.63 879.3 1195.41 879.67 1183.2 880.07 1170.98 880.47 1158.77 880.81 1146.56 881.06 1134.34 881.18 1122.13 881.17 1109.91 881.03 1097.7 880.77 1085.49 880.42 1073.27 880.02 1061.06 879.62 1048.84 879.26 1036.63 878.98 1024.42 878.83 1012.2 878.8 999.99 878.91 987.77 879.15 975.56 879.48 963.35 879.87 951.13 880.28 938.92 880.65 926.7 880.95 914.49 881.14 902.28 881.19 890.06 881.12 877.85 880.91 865.63 880.6 853.42 880.22 841.2 879.81 828.99 879.43 816.78 879.11 804.56 878.89 792.35 878.8 780.13 878.84 767.92 879.02 755.71 879.31 743.49 879.67 731.28 880.08 719.06 880.47 706.85 880.81 694.64 881.06 682.42 881.18 670.21 881.17 657.99 881.03 645.78 880.76 633.57 880.41 621.35 880.01 609.14 879.61 596.92 879.26 584.71 878.98 572.5 878.83 560.28 878.8 548.07 878.91 535.85 879.15 523.64 879.48 511.43 879.87 499.21 880.28 487 880.65 474.78 880.95 462.57 881.14 450.35 881.19 438.14 881.12 425.93 880.91 413.71 880.6 401.5 880.22 389.28 879.81 377.07 879.43 364.86 879.11 352.64 878.89 340.43 878.8 328.21 878.84 316 879.02 303.79 879.31 291.57 879.67 279.36 880.08 267.14 880.47 254.93 880.81 242.72 881.06 230.5 881.18 218.29 881.17 206.07 881.03 193.86 880.76 181.65 880.41 169.43 880.01 157.22 879.61 145 879.26 132.79 878.98 120.57 878.83 108.36 878.8 96.15 878.92 83.93 879.15 71.72 879.48 59.5 879.88 47.29 880.28 35.08 880.65 22.86 880.95 4.58 876.22 -1.36 861.39 -1.22 851.49 -1.06 841.59 -0.9 831.69 -0.75 821.79 -0.31 806.94 0.49 802 13.05 795.68 25.61 789.13 38.15 782.35 50.67 775.4 63.17 768.36 75.66 761.33 88.12 754.4 100.57 747.66 112.99 741.18 125.4 735.01 137.8 729.15 150.18 723.57 162.55 718.19 174.91 712.92 187.27 707.64 199.64 702.24 212 696.59 224.38 690.62 236.77 684.28 249.18 677.56 261.6 670.51 274.05 663.22 286.52 655.79 299.02 648.38 311.55 641.12 324.1 634.15 336.68 627.56 349.29 621.41 361.92 615.7 374.56 610.37 387.23 605.34 399.9 600.46 412.59 595.56 425.27 590.48 437.96 585.08 450.63 579.24 463.3 572.89 475.94 566.04 488.57 558.73 501.16 551.1 513.73 543.29 526.26 535.5 538.76 527.9 551.23 520.68 563.66 513.95 576.05 507.79 588.42 502.2 600.75 497.12 613.07 492.42 625.36 487.92 637.63 483.41 649.9 478.68 662.17 473.54 674.43 467.84 686.71 461.52 699.01 454.55 711.33 447.02 723.68 439.06 736.06 430.87 748.47 422.69 760.93 414.74 773.43 407.24 785.97 400.35 798.56 394.15 808.29 393.47 818.03 393.17 827.76 393.19 837.5 393.44 847.24 393.81 856.98 394.17 866.73 394.43 876.47 394.45 886.22 394.16 895.97 393.48 905.73 392.37 915.48 390.82 925.23 388.83 934.99 386.48 944.75 383.83 954.51 380.99 964.28 378.07 974.04 375.2 983.81 372.48 993.57 370.03 1003.34 367.94 1013.11 366.26 1022.89 365.03 1032.66 364.26 1042.44 363.9 1052.21 363.9 1061.99 364.17 1071.77 364.59 1081.55 365.05 1091.33 365.42 1101.11 365.58 1110.9 365.43 1120.68 364.9 1130.47 363.92 1140.25 362.47 1150.04 360.58 1159.83 358.27 1169.61 355.63 1179.4 352.76 1189.19 349.77 1198.98 346.8 1208.77 343.95 1218.56 341.36 1228.35 339.12 1238.14 337.3 1247.93 335.94 1257.71 335.06 1267.5 334.64 1277.29 334.6 1287.08 334.87 1296.87 335.33 1306.65 335.87 1316.44 336.35 1326.22 336.65 1336.01 336.65 1345.79 336.27 1355.57 335.43 1365.35 334.11 1375.13 332.31 1384.91 330.07 1394.69 327.45 1404.46 324.56 1414.24 321.52 1424.01 318.44" fill="url(#uuunion-grad3)" filter="url(#uuunion-blur2)"></path></svg>